<svg width="84" height="84" viewBox="0 0 84 84" fill="none" xmlns="http://www.w3.org/2000/svg">
<path d="M73.0536 11.718H65.7097V8.91256C65.7097 8.0922 65.0442 7.42725 64.2243 7.42725C63.404 7.42725 62.739 8.0922 62.739 8.91256V11.718H37.6539V8.91256C37.6539 8.0922 36.9889 7.42725 36.1686 7.42725C35.3487 7.42725 34.6838 8.0922 34.6838 8.91256V11.718H26.8447C22.3805 11.7231 18.763 15.3401 18.7578 19.8044V44.5591C18.7578 45.3794 19.4233 46.0444 20.2431 46.0444C21.0635 46.0444 21.7284 45.3794 21.7284 44.5591V34.8222H78.1694V67.6638C78.1663 70.4878 75.8776 72.7764 73.0536 72.7795H26.8447C24.0202 72.7764 21.7315 70.4878 21.7284 67.6638V59.0818C21.7284 58.262 21.0635 57.5965 20.2431 57.5965C19.4233 57.5965 18.7578 58.262 18.7578 59.0818V67.6638C18.763 72.128 22.3805 75.745 26.8447 75.7502H73.0536C77.5178 75.745 81.1348 72.128 81.14 67.6638V19.8044C81.1348 15.3401 77.5178 11.7231 73.0536 11.718ZM21.7284 31.8516V19.8044C21.7315 16.9803 24.0202 14.6917 26.8447 14.6886H34.6838V18.7212C32.4468 19.4517 31.073 21.6991 31.4421 24.0228C31.8123 26.3465 33.8159 28.0564 36.1686 28.0564C38.5217 28.0564 40.5254 26.3465 40.8956 24.0228C41.2647 21.6991 39.8909 19.4517 37.6539 18.7212V14.6886H62.739V18.7212C60.502 19.4517 59.1282 21.6991 59.4973 24.0228C59.8675 26.3465 61.8712 28.0564 64.2243 28.0564C66.577 28.0564 68.5806 26.3465 68.9508 24.0228C69.3205 21.6991 67.9467 19.4517 65.7097 18.7212V14.6886H73.0536C75.8776 14.6917 78.1663 16.9803 78.1694 19.8044V31.8516H21.7284ZM36.1686 21.4549C37.1712 21.4549 37.9843 22.2675 37.9843 23.2701C37.9843 24.2727 37.1712 25.0853 36.1686 25.0853C35.1665 25.0853 34.3534 24.2727 34.3534 23.2701C34.3549 22.2685 35.167 21.4559 36.1686 21.4549ZM64.2243 21.4549C65.2264 21.4549 66.0395 22.2675 66.0395 23.2701C66.0395 24.2727 65.2264 25.0853 64.2243 25.0853C63.2217 25.0853 62.4086 24.2727 62.4086 23.2701C62.4102 22.2685 63.2223 21.4559 64.2243 21.4549Z" fill="black"/>
<path d="M8.39797 53.3057H37.6536C38.4739 53.3057 39.1389 52.6408 39.1389 51.8204C39.1389 51.0006 38.4739 50.3351 37.6536 50.3351H8.39797L13.619 45.114C14.1993 44.5343 14.1993 43.5941 13.619 43.0138C13.0387 42.4335 12.0991 42.4335 11.5188 43.0138L3.76237 50.7703C3.18208 51.3506 3.18208 52.2907 3.76237 52.8705L11.5188 60.627C12.0991 61.2073 13.0387 61.2073 13.619 60.627C14.1993 60.0472 14.1993 59.1071 13.619 58.5268L8.39797 53.3057Z" fill="black"/>
</svg>
