<svg width="75" height="75" viewBox="0 0 75 75" fill="none" xmlns="http://www.w3.org/2000/svg">
<path fill-rule="evenodd" clip-rule="evenodd" d="M62.9568 73.2664H9.66022C9.09927 73.2664 8.64453 72.8116 8.64453 72.2507V48.7792C8.64453 44.9498 10.1657 41.2772 12.8736 38.5694C14.9969 36.446 17.7136 35.0523 20.6338 34.5496C17.0685 32.4515 14.1321 28.6663 12.8473 23.8702L8.92776 9.25276C8.83243 8.89741 8.93661 8.51856 9.20026 8.26188C9.46375 8.00535 9.84536 7.91132 10.198 8.01594C13.6292 9.03511 18.2706 8.60489 22.5834 7.38708C26.8932 6.17 30.8883 4.16388 32.9976 1.90963C33.2497 1.64033 33.6279 1.52875 33.9858 1.61828C34.3436 1.7078 34.6248 1.98436 34.7202 2.34072C35.7972 6.35834 36.4765 8.89509 37.2944 11.948L39.8683 2.34174C39.9635 1.98639 40.2433 1.71041 40.5998 1.62002C40.9563 1.52962 41.3338 1.63903 41.5867 1.90601C44.0479 4.50384 48.2821 6.45207 52.6262 7.5538C56.9674 8.65481 61.431 8.91468 64.3858 8.01638C64.7388 7.909 65.1223 8.00158 65.3876 8.25811C65.6527 8.51464 65.7579 8.8948 65.6624 9.25116C64.0637 15.2124 63.3401 17.9096 61.7439 23.8723C60.3672 29.0115 57.0948 32.9892 53.184 34.9744C55.6444 35.5441 57.9026 36.7285 59.7434 38.5694C62.4512 41.2772 63.9724 44.9498 63.9724 48.7792V72.2507C63.9724 72.8116 63.5177 73.2664 62.9568 73.2664ZM30.6505 35.7645L36.307 41.199L42.547 35.179C40.3386 34.0712 38.5424 32.261 37.2889 30.0029C35.7811 32.7147 33.4917 34.7887 30.6505 35.7645ZM51.509 71.235H61.9411V48.7792C61.9411 45.4885 60.6339 42.3326 58.3071 40.0057C55.9802 37.6789 52.8244 36.3717 49.5337 36.3717H44.2365L37.0137 43.3398C36.6209 43.7189 35.9986 43.7195 35.6049 43.3414L28.3506 36.3717H23.0834C19.7927 36.3717 16.6368 37.6789 14.31 40.0057C11.9831 42.3326 10.6759 45.4885 10.6759 48.7792V71.235H21.1082V52.4197C21.1082 51.8592 21.5633 51.404 22.1238 51.404C22.6844 51.404 23.1395 51.8592 23.1395 52.4197V71.235H49.4776V52.4197C49.4776 51.8592 49.9326 51.404 50.4933 51.404C51.0538 51.404 51.509 51.8592 51.509 52.4197V71.235ZM38.346 15.8721C38.4398 16.2228 38.5369 16.5848 38.6375 16.9596C39.6388 20.6979 39.4647 24.4058 38.374 27.564C39.6524 30.7399 42.0384 33.1786 45.2029 34.0265C51.301 35.6607 57.7811 30.8152 59.7817 23.3467C61.2257 17.9523 61.9557 15.2305 63.2654 10.3468C60.1538 10.8442 56.0926 10.5286 52.1269 9.52278C48.0745 8.49505 44.1313 6.74981 41.3948 4.49383L38.346 15.8721ZM14.8095 23.3442C16.8101 30.8129 23.2915 35.6609 29.3898 34.0266C35.4881 32.3924 38.6759 24.9541 36.6753 17.4853C35.2303 12.0946 34.5011 9.36999 33.1926 4.48759C30.7472 6.47326 27.0727 8.23025 23.1355 9.34199C19.1122 10.4781 14.8245 10.9385 11.3259 10.353L14.8095 23.3442ZM24.4509 27.2536C23.9083 27.3941 23.3537 27.0675 23.2132 26.5248C23.0728 25.9821 23.3993 25.4276 23.9421 25.2871L30.4832 23.5942C31.0259 23.4538 31.5805 23.7803 31.7209 24.3231C31.8614 24.8657 31.5348 25.4203 30.9921 25.5608L24.4509 27.2536ZM29.1744 17.6326C28.7747 18.0257 28.1311 18.0202 27.7381 17.6203C27.3451 17.2205 27.3506 16.577 27.7505 16.1839L30.6254 13.3577C31.0252 12.9648 31.6687 12.9703 32.0618 13.3701C32.4547 13.7698 32.4492 14.4135 32.0494 14.8064L29.1744 17.6326ZM22.7518 17.4856C23.292 17.6354 23.6091 18.1954 23.4593 18.7356C23.3096 19.2758 22.7495 19.5929 22.2093 19.4431L18.3094 18.3623C17.7692 18.2126 17.4521 17.6525 17.6019 17.1123C17.7516 16.5721 18.3117 16.255 18.8519 16.4048L22.7518 17.4856ZM42.9267 20.6425C44.5814 21.5032 46.3985 22.2514 48.3416 22.8454C50.2855 23.4396 52.2082 23.8367 54.063 24.0528C54.456 24.0986 54.7867 24.3685 54.9103 24.7444C55.0338 25.1204 54.9279 25.5339 54.6386 25.8039C52.115 28.1608 49.2232 29.1431 46.6546 28.3581L46.6535 28.3578C44.0866 27.5702 42.2392 25.1387 41.4679 21.7702C41.3795 21.3843 41.5235 20.9822 41.8367 20.74C42.15 20.4979 42.5754 20.4597 42.9267 20.6425ZM44.1837 23.484C44.8796 24.9434 45.9018 26.0021 47.2487 26.4157C48.5971 26.8275 50.0375 26.5216 51.431 25.7016C50.2186 25.4701 48.9872 25.1668 47.7477 24.788C46.5087 24.4093 45.3179 23.9712 44.1837 23.484ZM58.6732 17.4096C58.7833 17.9592 58.4265 18.4949 57.8769 18.605C57.3272 18.7152 56.7915 18.3584 56.6814 17.8088C56.5713 17.259 56.1736 16.7838 55.5985 16.6078C55.0258 16.4329 54.428 16.6008 54.0308 16.9955C53.633 17.3904 52.9894 17.3883 52.5943 16.9905C52.1993 16.5928 52.2015 15.9492 52.5992 15.5542C53.5096 14.65 54.8793 14.2643 56.192 14.6649L56.1927 14.6652C57.5082 15.0678 58.4213 16.152 58.6732 17.4096ZM48.8957 14.4201C49.0047 14.9699 48.6468 15.5049 48.0968 15.6139C47.5469 15.7228 47.0121 15.3649 46.9031 14.8149C46.794 14.2643 46.3966 13.7895 45.8223 13.6137C45.2494 13.439 44.6516 13.6067 44.2543 14.0014C43.8566 14.3963 43.213 14.3942 42.8179 13.9964C42.4229 13.5987 42.4251 12.9551 42.8228 12.5601C43.7332 11.6559 45.1029 11.2702 46.4157 11.6708L46.4165 11.6711C47.7323 12.0739 48.6457 13.1586 48.8957 14.4201Z" fill="black"/>
</svg>
