<svg width="20" height="21" viewBox="0 0 20 21" fill="none" xmlns="http://www.w3.org/2000/svg">
<path d="M18.4598 4.84002C16.9931 5.14668 14.8064 5.60668 11.8998 6.22002L1.67977 8.36002C1.54643 8.38668 1.43643 8.41668 1.34977 8.45002C1.2631 8.48335 1.22977 8.51335 1.24977 8.54002C1.26977 8.56668 1.29977 8.58668 1.33977 8.60002L5.07977 11.5C5.1731 11.58 5.21977 11.68 5.21977 11.8V15.88C5.21977 15.92 5.25977 15.9267 5.33977 15.9C5.41977 15.8733 5.5131 15.82 5.61977 15.74C5.96643 15.5267 6.6131 15.1067 7.55977 14.48L8.61977 13.78C9.04643 14.0867 9.68643 14.5467 10.5398 15.16L11.3598 15.74C11.4664 15.82 11.5864 15.8467 11.7198 15.82C11.8531 15.7933 11.9598 15.72 12.0398 15.6L18.6798 5.16002C18.7598 5.04002 18.7798 4.95002 18.7398 4.89002C18.6998 4.83002 18.6064 4.81335 18.4598 4.84002ZM16.5198 6.34002C16.3998 6.40668 16.2664 6.49335 16.1198 6.60002C12.3864 8.97335 9.5931 10.76 7.73977 11.96C7.60643 12.04 7.49977 12.1467 7.41977 12.28C7.1131 12.7867 6.66643 13.5467 6.07977 14.56C6.06643 14.5867 6.04643 14.6133 6.01977 14.64C5.97977 14.6933 5.95977 14.56 5.95977 14.24V11.52C5.95977 11.4533 5.96977 11.4 5.98977 11.36C6.00977 11.32 6.0531 11.2867 6.11977 11.26C7.66643 10.5133 9.19977 9.76668 10.7198 9.02002L16.7198 6.12002L16.8198 6.08002C16.8464 6.08002 16.8298 6.10668 16.7698 6.16002C16.7098 6.21335 16.6264 6.27335 16.5198 6.34002Z" fill="white"/>
</svg>
